<?xml version="1.0" encoding="UTF-8" standalone="no"?>
<!DOCTYPE svg PUBLIC "-//W3C//DTD SVG 1.1//EN" "http://www.w3.org/Graphics/SVG/1.1/DTD/svg11.dtd">
<svg width="100%" height="100%" viewBox="0 0 143 21" version="1.1" xmlns="http://www.w3.org/2000/svg" xmlns:xlink="http://www.w3.org/1999/xlink" xml:space="preserve" xmlns:serif="http://www.serif.com/" style="fill-rule:evenodd;clip-rule:evenodd;stroke-linejoin:round;stroke-miterlimit:2;">
    <g id="Vector">
        <path d="M15.629,19.491C19.355,17.34 21.249,13.236 20.766,9.22L17.067,11.355C16.8,13.345 15.646,15.194 13.773,16.276C10.566,18.127 6.465,17.028 4.613,13.821C2.761,10.614 3.86,6.513 7.067,4.661C9.596,3.201 12.68,3.575 14.779,5.37L9.073,8.665L8.159,13.523L20.106,6.626C19.921,6.162 19.7,5.705 19.443,5.259C16.566,0.276 10.194,-1.431 5.211,1.446C0.228,4.323 -1.479,10.694 1.398,15.678C4.275,20.661 10.646,22.368 15.629,19.491Z"/>
        <path d="M45.161,13.481L44.366,15.126L44.356,15.144C43.306,17.035 41.946,18.476 40.269,19.435C38.592,20.394 36.644,20.846 34.457,20.829L34.454,20.829C31.508,20.794 28.969,19.785 26.84,17.816C24.698,15.835 23.619,13.383 23.584,10.537C23.548,7.652 24.594,5.198 26.731,3.153L26.735,3.148C28.891,1.119 31.462,0.037 34.452,0.001C36.594,-0.033 38.594,0.526 40.436,1.629L40.444,1.634C42.166,2.695 43.478,4.025 44.249,5.705L44.25,5.707L45.094,7.575L40.612,7.575L40.387,7.203C39.103,5.081 37.2,3.991 34.548,3.931C32.814,3.903 31.283,4.494 29.86,5.791L29.854,5.796C28.383,7.112 27.687,8.654 27.687,10.431C27.687,12.217 28.357,13.736 29.709,15.053C31.055,16.333 32.645,16.96 34.484,16.931L34.488,16.931C37.191,16.902 39.124,15.859 40.431,13.834L40.66,13.481L45.161,13.481Z" style="fill-rule:nonzero;"/>
        <path d="M56.915,0.066C59.73,0.171 62.177,1.22 64.143,3.271C66.097,5.279 67.103,7.688 67.103,10.464C67.103,13.316 66.021,15.796 63.894,17.867C61.795,19.91 59.238,20.932 56.298,20.829C53.477,20.758 51.031,19.706 49.067,17.691C47.106,15.678 46.138,13.265 46.138,10.496C46.138,7.618 47.214,5.106 49.311,3.063C51.412,0.984 53.973,-0.038 56.915,0.066ZM56.382,16.899L56.392,16.9C58.254,16.986 59.788,16.395 61.089,15.042L61.095,15.036C62.444,13.664 63.061,12.117 63.033,10.289C62.971,8.546 62.322,7.079 61.094,5.826C59.88,4.586 58.459,3.996 56.753,3.996L56.74,3.996C54.942,3.967 53.452,4.588 52.167,5.838C50.89,7.082 50.271,8.538 50.241,10.315C50.211,12.065 50.774,13.585 51.993,14.888C53.215,16.194 54.643,16.842 56.382,16.899Z"/>
        <path d="M133.965,7L134,13.85L132.63,13.85L128.462,9.084L128.462,13.85L127.092,13.85L127.092,7.012L128.474,7.012L132.618,11.755L132.595,7.012L133.965,7Z" style="fill-rule:nonzero;"/>
        <path d="M118.739,12.48L123.586,12.48L123.586,13.85L117.369,13.85L117.369,7.012L123.551,7.012L123.551,8.382L118.739,8.382L118.739,9.74L121.778,9.74L121.778,11.11L118.739,11.11L118.739,12.48Z" style="fill-rule:nonzero;"/>
        <path d="M111.952,7.012L113.518,7.012L113.518,13.85L112.136,13.85L112.136,9.763L110.156,13.85L108.567,13.85L106.576,9.763L106.576,13.85L105.205,13.85L105.205,7.012L106.76,7.012L109.362,12.354L111.952,7.012Z" style="fill-rule:nonzero;"/>
        <path d="M100.304,7.012L101.444,8.036L101.444,12.906L100.327,13.85L95.664,13.85L94.547,12.906L94.547,8.036L95.687,7.012L100.304,7.012ZM100.073,8.646L99.774,8.382L96.217,8.382L95.929,8.646L95.929,12.273L96.17,12.48L99.82,12.48L100.073,12.273L100.073,8.646Z" style="fill-rule:nonzero;"/>
        <path d="M90.04,7L91.479,7L89.257,13.85L87.415,13.85L85.745,8.727L84.076,13.85L82.234,13.85L80,7L81.439,7L83.155,12.25L84.859,7L86.62,7L88.336,12.25L90.04,7Z" style="fill-rule:nonzero;"/>
        <path d="M132.5,2L81.5,2C76.806,2 73,5.806 73,10.5C73,15.194 76.806,19 81.5,19L132.5,19C137.194,19 141,15.194 141,10.5C141,5.806 137.194,2 132.5,2ZM81.5,0C75.701,0 71,4.701 71,10.5C71,16.299 75.701,21 81.5,21L132.5,21C138.299,21 143,16.299 143,10.5C143,4.701 138.299,0 132.5,0L81.5,0Z"/>
    </g>
</svg>
